# xmcd
#
# Track frame offsets:
#	150
#	20202
#	37848
#	49378
#	62687
#	74240
#	87484
#	101554
#	114079
#	126754
#	138113
#	152215
#
# Disc length: 2210 seconds
#
# Revision: 1
# Processed by: cddbd v1.5.2PL0 Copyright (c) Steve Scherf et al.
# Submitted via: audiograbber 1.83.01
#
DISCID=a808a00c
DTITLE=Daliah Lavi - Ich bin dein Freund 
DYEAR=1972
DGENRE=Ballad
TTITLE0=Ich bin dein Freund
TTITLE1=Wohin gehör' ich
TTITLE2=Oh! Schwarzer Sonntag
TTITLE3=Es ist spät, zu spät für uns
TTITLE4=Schlaf ein, mein Kind
TTITLE5=Nicola und Bart
TTITLE6=Die Songs von Gestern
TTITLE7=Lieben Sie Partys?
TTITLE8=Wieder verliebt zu sein
TTITLE9=Hätt ich noch einmal zu leben
TTITLE10=Abraham und Sarah
TTITLE11=Wenn der Vorhang fällt
EXTD=
EXTT0=
EXTT1=
EXTT2=
EXTT3=
EXTT4=
EXTT5=
EXTT6=
EXTT7=
EXTT8=
EXTT9=
EXTT10=
EXTT11=
PLAYORDER=
